<svg xmlns="http://www.w3.org/2000/svg" viewBox="0 0 100 100">
  <defs>
    <style>
      .bg { fill: #facc15; }
      .leaf { fill: #16a34a; }
      @media (prefers-color-scheme: dark) {
        .bg { fill: #eab308; }
        .leaf { fill: #22c55e; }
      }
    </style>
  </defs>
  <!-- Background circle representing pineapple body -->
  <circle cx="50" cy="60" r="30" class="bg" />
  <!-- Cross-hatch pattern for texture -->
  <path d="M 30 40 L 70 80 M 70 40 L 30 80 M 40 35 L 60 85 M 60 35 L 40 85" stroke="rgba(0,0,0,0.1)" stroke-width="2" fill="none" />
  <!-- Leaves -->
  <path d="M 50 30 C 40 10 20 20 20 20 C 30 25 40 25 45 35 Z" class="leaf" />
  <path d="M 50 30 C 60 10 80 20 80 20 C 70 25 60 25 55 35 Z" class="leaf" />
  <path d="M 50 35 C 50 15 50 5 50 5 C 50 15 55 25 50 35 Z" class="leaf" />
</svg>